<?xml version="1.0" standalone="no"?>
<!DOCTYPE svg PUBLIC "-//W3C//DTD SVG 20010904//EN"
 "http://www.w3.org/TR/2001/REC-SVG-20010904/DTD/svg10.dtd">
<svg version="1.0" xmlns="http://www.w3.org/2000/svg"
 width="512.000000pt" height="512.000000pt" viewBox="0 0 512.000000 512.000000"
 preserveAspectRatio="xMidYMid meet">
<metadata>
Created by potrace 1.14, written by Peter Selinger 2001-2017
</metadata>
<g transform="translate(0.000000,512.000000) scale(0.100000,-0.100000)"
fill="#000000" stroke="none">
<path d="M2567 4174 c-1 -1 -47 -4 -103 -7 -196 -13 -389 -68 -584 -168 -261
-134 -497 -364 -631 -614 -14 -26 -25 -32 -85 -43 -253 -47 -471 -156 -645
-324 -169 -163 -284 -354 -339 -565 -11 -44 -23 -91 -27 -104 -13 -52 -11
-354 3 -434 85 -482 466 -880 939 -981 38 -9 79 -18 90 -20 11 -3 675 -5 1475
-6 1386 0 1479 1 1595 26 49 11 154 51 215 81 284 144 480 403 545 720 19 94
18 281 -1 383 -65 337 -298 621 -616 751 -51 21 -96 38 -101 39 -4 0 -31 6
-60 11 -28 6 -74 15 -102 19 l-50 7 -28 104 c-106 395 -387 749 -747 943 -126
68 -327 139 -435 155 -16 2 -37 7 -45 10 -12 4 -258 20 -263 17z"/>
</g>
</svg>
